<svg width="1885" height="768" viewBox="0 0 1885 768" fill="none" xmlns="http://www.w3.org/2000/svg">
<path d="M402.211 539.74L407.095 319.946L397.327 315.061V271.102H333.83V305.293H304.524V339.483H275.218L270.333 671.62H245.912V700.93H50.537V681.39L31 671.62L55.422 105.034L70.075 95.265L99.381 80.612H241.027L270.333 109.918H299.639V75.728L319.177 61.075H475.476V100.15H509.667V114.803V173.415H543.857V144.109H582.932V114.803L597.585 105.034L812.497 109.918V134.34H866.224V168.531H905.299V144.109L929.721 124.571L1095.79 128.777L1291.16 134.34L1305.82 153.878V175.857H1344.89V158.762L1364.43 134.34H1564.69L1574.46 158.762V178.299H1603.76V222.258H1633.07H1657.49V183.184H1618.41V163.646V95.265V80.612L1633.07 61.075H1657.49V36.653L1677.03 22L1784.48 26.884L1799.14 41.537V61.075H1823.56L1843.1 80.612V168.531L1838.21 183.184H1804.02V222.258H1823.56L1843.1 241.796V261.333L1857.75 691.16L1843.1 705.81L1823.56 720.46H1681.91H1662.37L1647.72 705.81L1642.84 691.16L1623.3 710.69L1603.76 715.58H1442.58L1423.04 696.04L1413.27 671.62V334.599H1364.43V349.252L1369.31 671.62L1359.54 696.04L1344.89 710.69H1193.48L1173.94 696.04L1164.17 676.5V319.946H1144.63H1110.44V676.5L1105.56 696.04L1086.02 705.81H910.184V740H890.646H626.891V696.04H570.721H514.551V652.08H480.361V613.01H441.286V539.74H402.211Z" fill="white"/>
<path d="M1642.84 691.16L1623.3 710.69L1603.76 715.58H1442.58L1423.04 696.04L1413.27 671.62V334.599H1364.43V349.252L1369.31 671.62L1359.54 696.04L1344.89 710.69H1193.48L1173.94 696.04L1164.17 676.5V319.946H1144.63H1110.44V676.5L1105.56 696.04L1086.02 705.81H910.184V740H890.646H626.891V696.04H570.721H514.551V652.08H480.361V613.01H441.286V539.74H402.211L407.095 319.946L397.327 315.061V271.102H333.83V305.293H304.524V339.483H275.218L270.333 671.62H245.912V700.93H50.537V681.39L31 671.62L55.422 105.034L70.075 95.265L99.381 80.612H241.027L270.333 109.918M1642.84 691.16L1633.07 222.258M1642.84 691.16L1647.72 705.81L1662.37 720.46H1681.91H1823.56L1843.1 705.81L1857.75 691.16L1843.1 261.333V241.796L1823.56 222.258M270.333 109.918H299.639V75.728L319.177 61.075H475.476V100.15H509.667V114.803V173.415M270.333 109.918V139.224M1633.07 222.258H1657.49M1633.07 222.258H1603.76V178.299H1574.46V158.762L1564.69 134.34H1364.43L1344.89 158.762V175.857H1305.82V153.878L1291.16 134.34L1095.79 128.777M1823.56 222.258H1804.02V183.184H1838.21L1843.1 168.531V80.612L1823.56 61.075H1799.14V41.537L1784.48 26.884L1677.03 22L1657.49 36.653V61.075H1633.07L1618.41 80.612V95.265V163.646V183.184M1823.56 222.258H1657.49M1657.49 222.258V183.184H1618.41M1095.79 128.777V175.857M1095.79 128.777L929.721 124.571L905.299 144.109V168.531M1618.41 183.184V202.721M905.299 212.49V168.531M905.299 168.531H866.224V134.34H812.497V109.918L597.585 105.034L582.932 114.803V144.109H543.857V173.415H509.667M509.667 173.415V207.605" stroke="black" stroke-width="39.0748"/>
<path d="M578.049 324.831H612.239V295.525H646.43V266.219H739.233V324.831H675.736V356.579H612.239V388.33H578.049V324.831Z" fill="black" fill-opacity="0.91"/>
<path d="M607.354 466.47H675.734V437.17H768.536V407.86H827.148V378.555H885.762V412.75H924.836L919.952 564.16H851.57V534.85L641.544 529.97V500.66H607.354V466.47Z" fill="black"/>
<path d="M1183.71 315.062H1115.33V676.505H1183.71V315.062Z" fill="black"/>
<path d="M1359.54 344.367H1376.64H1408.39H1427.92V676.5H1359.54V344.367Z" fill="black"/>
</svg>
