<svg width="2000" height="2000" viewBox="0 0 2000 2000" fill="none" xmlns="http://www.w3.org/2000/svg">
<path d="M458.211 1158.74L463.095 938.946L453.327 934.061V890.102H389.83V924.293H360.524V958.483H331.218L326.333 1290.62H301.912V1319.93H106.537V1300.39L87 1290.62L111.422 724.034L126.075 714.265L155.381 699.612H297.027L326.333 728.918H355.639V694.728L375.177 680.075H531.476V719.15H565.667V733.803V792.415H599.857V763.109H638.932V733.803L653.585 724.034L868.497 728.918V753.34H922.224V787.531H961.299V763.109L985.721 743.571L1151.79 747.777L1347.16 753.34L1361.82 772.878V794.857H1400.89V777.762L1420.43 753.34H1620.69L1630.46 777.762V797.299H1659.76V841.258H1689.07H1713.49V802.184H1674.41V782.646V714.265V699.612L1689.07 680.075H1713.49V655.653L1733.03 641L1840.48 645.884L1855.14 660.537V680.075H1879.56L1899.1 699.612V787.531L1894.21 802.184H1860.02V841.258H1879.56L1899.1 860.796V880.333L1913.75 1310.16L1899.1 1324.81L1879.56 1339.46H1737.91H1718.37L1703.72 1324.81L1698.84 1310.16L1679.3 1329.69L1659.76 1334.58H1498.58L1479.04 1315.04L1469.27 1290.62V953.599H1420.43V968.252L1425.31 1290.62L1415.54 1315.04L1400.89 1329.69H1249.48L1229.94 1315.04L1220.17 1295.5V938.946H1200.63H1166.44V1295.5L1161.56 1315.04L1142.02 1324.81H966.184V1359H946.646H682.891V1315.04H626.721H570.551V1271.08H536.361V1232.01H497.286V1158.74H458.211Z" fill="white"/>
<path d="M1698.84 1310.16L1679.3 1329.69L1659.76 1334.58H1498.58L1479.04 1315.04L1469.27 1290.62V953.599H1420.43V968.252L1425.31 1290.62L1415.54 1315.04L1400.89 1329.69H1249.48L1229.94 1315.04L1220.17 1295.5V938.946H1200.63H1166.44V1295.5L1161.56 1315.04L1142.02 1324.81H966.184V1359H946.646H682.891V1315.04H626.721H570.551V1271.08H536.361V1232.01H497.286V1158.74H458.211L463.095 938.946L453.327 934.061V890.102H389.83V924.293H360.524V958.483H331.218L326.333 1290.62H301.912V1319.93H106.537V1300.39L87 1290.62L111.422 724.034L126.075 714.265L155.381 699.612H297.027L326.333 728.918M1698.84 1310.16L1689.07 841.258M1698.84 1310.16L1703.72 1324.81L1718.37 1339.46H1737.91H1879.56L1899.1 1324.81L1913.75 1310.16L1899.1 880.333V860.796L1879.56 841.258M1689.07 841.258H1713.49M1689.07 841.258H1659.76V797.299H1630.46V777.762L1620.69 753.34H1420.43L1400.89 777.762V794.857H1361.82V772.878L1347.16 753.34L1151.79 747.777M1879.56 841.258H1860.02V802.184H1894.21L1899.1 787.531V699.612L1879.56 680.075H1855.14V660.537L1840.48 645.884L1733.03 641L1713.49 655.653V680.075H1689.07L1674.41 699.612V714.265V782.646V802.184M1879.56 841.258H1713.49M1674.41 821.721V802.184M1674.41 802.184H1713.49V841.258M1151.79 794.857V747.777M961.299 831.49V787.531M961.299 787.531V763.109L985.721 743.571L1151.79 747.777M961.299 787.531H922.224V753.34H868.497V728.918L653.585 724.034L638.932 733.803V763.109H599.857V792.415H565.667M565.667 792.415V826.605M565.667 792.415V733.803V719.15H531.476V680.075H375.177L355.639 694.728V728.918H326.333M326.333 728.918V758.224" stroke="black" stroke-width="39.0748"/>
<path d="M634.048 943.831H668.238V914.525H702.429V885.219H795.232V943.831H731.735V975.579H668.238V1007.33H634.048V943.831Z" fill="black" fill-opacity="0.91"/>
<path d="M663.354 1085.47H731.734V1056.17H824.537V1026.86H883.149V997.555H941.762V1031.75H980.837L975.952 1183.16H907.571V1153.85L697.544 1148.97V1119.66H663.354V1085.47Z" fill="black"/>
<rect x="1171.33" y="934.062" width="68.381" height="361.442" fill="black"/>
<path d="M1415.54 963.367H1432.64H1464.39H1483.92V1295.5H1415.54V963.367Z" fill="black"/>
</svg>
